<svg width="200" height="200" viewBox="0 0 200 200" fill="none" xmlns="http://www.w3.org/2000/svg">
    <rect x="28" y="52" width="130" height="16" rx="8" fill="#E7E9EE"/>
    <rect x="61" y="36" width="78" height="16" rx="8" fill="#E7E9EE"/>
    <rect x="39" y="68" width="141" height="16" rx="8" fill="#E7E9EE"/>
    <rect y="84" width="168" height="16" rx="8" fill="#E7E9EE"/>
    <rect x="39" y="100" width="161" height="16" rx="8" fill="#E7E9EE"/>
    <rect x="23" y="116" width="145" height="16" rx="8" fill="#E7E9EE"/>
    <rect x="48" y="132" width="105" height="16" rx="8" fill="#E7E9EE"/>
    <rect x="67" y="148" width="68" height="16" rx="8" fill="#E7E9EE"/>
    <path fill-rule="evenodd" clip-rule="evenodd" d="M141 62C142.105 62 143 61.1046 143 60C143 58.8954 142.105 58 141 58C139.895 58 139 58.8954 139 60C139 61.1046 139.895 62 141 62ZM141 64C143.209 64 145 62.2091 145 60C145 57.7909 143.209 56 141 56C138.791 56 137 57.7909 137 60C137 62.2091 138.791 64 141 64Z" fill="#B7BDCC"/>
    <path fill-rule="evenodd" clip-rule="evenodd" d="M184 94C185.105 94 186 93.1046 186 92C186 90.8954 185.105 90 184 90C182.895 90 182 90.8954 182 92C182 93.1046 182.895 94 184 94ZM184 96C186.209 96 188 94.2091 188 92C188 89.7909 186.209 88 184 88C181.791 88 180 89.7909 180 92C180 94.2091 181.791 96 184 96Z" fill="#E1E3EA"/>
    <path fill-rule="evenodd" clip-rule="evenodd" d="M18 77C19.1046 77 20 76.1046 20 75C20 73.8954 19.1046 73 18 73C16.8954 73 16 73.8954 16 75C16 76.1046 16.8954 77 18 77ZM18 79C20.2091 79 22 77.2091 22 75C22 72.7909 20.2091 71 18 71C15.7909 71 14 72.7909 14 75C14 77.2091 15.7909 79 18 79Z" fill="#E1E3EA"/>
    <path fill-rule="evenodd" clip-rule="evenodd" d="M83 148C84.1046 148 85 147.105 85 146C85 144.895 84.1046 144 83 144C81.8954 144 81 144.895 81 146C81 147.105 81.8954 148 83 148ZM83 150C85.2091 150 87 148.209 87 146C87 143.791 85.2091 142 83 142C80.7909 142 79 143.791 79 146C79 148.209 80.7909 150 83 150Z" fill="#B7BDCC"/>
    <path fill-rule="evenodd" clip-rule="evenodd" d="M91.4847 25.1717C91.0942 24.7812 90.461 24.7812 90.0705 25.1717L88.6563 26.5859L87.242 25.1717C86.8515 24.7812 86.2183 24.7812 85.8278 25.1717C85.4373 25.5622 85.4373 26.1954 85.8278 26.5859L87.242 28.0001L85.8278 29.4143C85.4373 29.8049 85.4373 30.438 85.8278 30.8285C86.2183 31.2191 86.8515 31.2191 87.242 30.8285L88.6562 29.4143L90.0705 30.8285C90.461 31.2191 91.0942 31.2191 91.4847 30.8285C91.8752 30.438 91.8752 29.8049 91.4847 29.4143L90.0705 28.0001L91.4847 26.5859C91.8752 26.1954 91.8752 25.5622 91.4847 25.1717Z" fill="#E1E3EA"/>
    <path d="M56.0198 59C56.9206 59 57.6404 59.2243 58.1792 59.6729C58.7264 60.1215 59 60.7543 59 61.5714C59 62.3244 58.739 62.9132 58.2171 63.3378C57.7035 63.7543 57.0216 63.9666 56.1713 63.9746L56.1082 64.8758H54.214L54.1509 62.6409H54.9086C55.5568 62.6409 56.0493 62.5648 56.386 62.4126C56.7312 62.2603 56.9038 61.984 56.9038 61.5834C56.9038 61.3031 56.8238 61.0828 56.6638 60.9226C56.5039 60.7624 56.2808 60.6822 55.9946 60.6822C55.6915 60.6822 55.4558 60.7664 55.2874 60.9346C55.119 61.0948 55.0348 61.3151 55.0348 61.5955H53.0017C52.9849 61.1068 53.0901 60.6662 53.3174 60.2737C53.5532 59.8812 53.8983 59.5728 54.3529 59.3485C54.816 59.1162 55.3716 59 56.0198 59ZM55.1864 68C54.8075 68 54.496 67.8959 54.2519 67.6876C54.0162 67.4713 53.8983 67.2069 53.8983 66.8945C53.8983 66.5741 54.0162 66.3057 54.2519 66.0895C54.496 65.8732 54.8075 65.765 55.1864 65.765C55.5568 65.765 55.8599 65.8732 56.0956 66.0895C56.3397 66.3057 56.4618 66.5741 56.4618 66.8945C56.4618 67.2069 56.3397 67.4713 56.0956 67.6876C55.8599 67.8959 55.5568 68 55.1864 68Z" fill="#B7BDCC"/>
    <path d="M107.02 169C107.921 169 108.64 169.224 109.179 169.673C109.726 170.121 110 170.754 110 171.571C110 172.324 109.739 172.913 109.217 173.338C108.704 173.754 108.022 173.967 107.171 173.975L107.108 174.876H105.214L105.151 172.641H105.909C106.557 172.641 107.049 172.565 107.386 172.413C107.731 172.26 107.904 171.984 107.904 171.583C107.904 171.303 107.824 171.083 107.664 170.923C107.504 170.762 107.281 170.682 106.995 170.682C106.691 170.682 106.456 170.766 106.287 170.935C106.119 171.095 106.035 171.315 106.035 171.595H104.002C103.985 171.107 104.09 170.666 104.317 170.274C104.553 169.881 104.898 169.573 105.353 169.348C105.816 169.116 106.372 169 107.02 169ZM106.186 178C105.808 178 105.496 177.896 105.252 177.688C105.016 177.471 104.898 177.207 104.898 176.895C104.898 176.574 105.016 176.306 105.252 176.089C105.496 175.873 105.808 175.765 106.186 175.765C106.557 175.765 106.86 175.873 107.096 176.089C107.34 176.306 107.462 176.574 107.462 176.895C107.462 177.207 107.34 177.471 107.096 177.688C106.86 177.896 106.557 178 106.186 178Z" fill="#E1E3EA"/>
    <path d="M158.02 103C158.921 103 159.64 103.224 160.179 103.673C160.726 104.121 161 104.754 161 105.571C161 106.324 160.739 106.913 160.217 107.338C159.704 107.754 159.022 107.967 158.171 107.975L158.108 108.876H156.214L156.151 106.641H156.909C157.557 106.641 158.049 106.565 158.386 106.413C158.731 106.26 158.904 105.984 158.904 105.583C158.904 105.303 158.824 105.083 158.664 104.923C158.504 104.762 158.281 104.682 157.995 104.682C157.691 104.682 157.456 104.766 157.287 104.935C157.119 105.095 157.035 105.315 157.035 105.595H155.002C154.985 105.107 155.09 104.666 155.317 104.274C155.553 103.881 155.898 103.573 156.353 103.348C156.816 103.116 157.372 103 158.02 103ZM157.186 112C156.808 112 156.496 111.896 156.252 111.688C156.016 111.471 155.898 111.207 155.898 110.895C155.898 110.574 156.016 110.306 156.252 110.089C156.496 109.873 156.808 109.765 157.186 109.765C157.557 109.765 157.86 109.873 158.096 110.089C158.34 110.306 158.462 110.574 158.462 110.895C158.462 111.207 158.34 111.471 158.096 111.688C157.86 111.896 157.557 112 157.186 112Z" fill="#B7BDCC"/>
    <path fill-rule="evenodd" clip-rule="evenodd" d="M25.1722 105.172C24.7817 105.562 24.7817 106.195 25.1722 106.586L26.5864 108L25.1722 109.414C24.7817 109.805 24.7817 110.438 25.1722 110.828C25.5627 111.219 26.1959 111.219 26.5864 110.828L28.0006 109.414L29.4148 110.828C29.8053 111.219 30.4385 111.219 30.829 110.828C31.2196 110.438 31.2196 109.805 30.829 109.414L29.4148 108L30.829 106.586C31.2196 106.195 31.2196 105.562 30.829 105.172C30.4385 104.781 29.8053 104.781 29.4148 105.172L28.0006 106.586L26.5864 105.172C26.1959 104.781 25.5627 104.781 25.1722 105.172Z" fill="#E1E3EA"/>
    <path fill-rule="evenodd" clip-rule="evenodd" d="M167.828 137.172C167.438 136.781 166.805 136.781 166.414 137.172L165 138.586L163.586 137.172C163.195 136.781 162.562 136.781 162.172 137.172C161.781 137.562 161.781 138.195 162.172 138.586L163.586 140L162.172 141.414C161.781 141.805 161.781 142.438 162.172 142.829C162.562 143.219 163.195 143.219 163.586 142.829L165 141.414L166.414 142.829C166.805 143.219 167.438 143.219 167.828 142.829C168.219 142.438 168.219 141.805 167.828 141.414L166.414 140L167.828 138.586C168.219 138.195 168.219 137.562 167.828 137.172Z" fill="#E1E3EA"/>
    <path fill-rule="evenodd" clip-rule="evenodd" d="M73 73C68.5817 73 65 76.5817 65 81V84H135V81.6635V81C135 76.5817 131.418 73 127 73H118.375H73ZM65 118V86H135V118C135 122.418 131.418 126 127 126H73C68.5817 126 65 122.418 65 118ZM95.47 105.463C95.47 103.77 95.7797 102.436 96.3991 101.462C97.0278 100.487 98.0366 100 99.4255 100C100.814 100 101.818 100.487 102.438 101.462C103.067 102.436 103.381 103.77 103.381 105.463C103.381 107.176 103.067 108.519 102.438 109.494C101.818 110.468 100.814 110.956 99.4255 110.956C98.0366 110.956 97.0278 110.468 96.3991 109.494C95.7797 108.519 95.47 107.176 95.47 105.463ZM101.016 105.463C101.016 104.469 100.913 103.706 100.706 103.174C100.5 102.633 100.073 102.362 99.4255 102.362C98.778 102.362 98.351 102.633 98.1445 103.174C97.9381 103.706 97.8349 104.469 97.8349 105.463C97.8349 106.132 97.8724 106.689 97.9475 107.132C98.0225 107.565 98.1727 107.919 98.3979 108.195C98.6325 108.46 98.975 108.593 99.4255 108.593C99.8759 108.593 100.214 108.46 100.439 108.195C100.674 107.919 100.828 107.565 100.904 107.132C100.979 106.689 101.016 106.132 101.016 105.463ZM86 109.081V107.043L90.4481 100.369H93.1367V106.895H94.291V109.081H93.1367V111H90.7297V109.081H86ZM90.8986 103.145L88.5338 106.895H90.8986V103.145ZM104.709 107.043V109.081H109.439V111H111.846V109.081H113V106.895H111.846V100.369H109.157L104.709 107.043ZM107.243 106.895L109.608 103.145V106.895H107.243ZM117.5 80C118.328 80 119 79.3284 119 78.5C119 77.6716 118.328 77 117.5 77C116.672 77 116 77.6716 116 78.5C116 79.3284 116.672 80 117.5 80ZM124 78.5C124 79.3284 123.328 80 122.5 80C121.672 80 121 79.3284 121 78.5C121 77.6716 121.672 77 122.5 77C123.328 77 124 77.6716 124 78.5ZM127.5 80C128.328 80 129 79.3284 129 78.5C129 77.6716 128.328 77 127.5 77C126.672 77 126 77.6716 126 78.5C126 79.3284 126.672 80 127.5 80Z" fill="#B7BDCC"/>
</svg>
