<svg width="156" height="38" viewBox="0 0 156 38" fill="none" xmlns="http://www.w3.org/2000/svg">
<path d="M1.78125 22.5824L1.78125 27.936C1.78125 28.339 2.00417 28.7114 2.36603 28.9128L18.4152 37.8489C18.7771 38.0504 19.2229 38.0504 19.5848 37.8489L35.634 28.9128C35.9958 28.7114 36.2188 28.339 36.2188 27.936V20.7386L19 30.3601L8.7986 24.68L8.7986 18.6752L1.78125 22.5824Z" fill="#009BB9"/>
<path d="M19 7.63991L29.2014 13.32V19.4152L36.2188 15.508V10.064C36.2188 9.66099 35.9958 9.28864 35.634 9.08715L19.5848 0.151113C19.2229 -0.050371 18.7771 -0.050371 18.4152 0.151113L2.36603 9.08715C2.00417 9.28864 1.78125 9.66099 1.78125 10.064L1.78125 17.3862L19 7.63991Z" fill="#009BB9"/>
<path fill-rule="evenodd" clip-rule="evenodd" d="M145.434 4.82559V17.7859H148.14V4.82559H145.434ZM120.202 8.38882V17.7859H122.907V13.3494C122.907 12.4527 123.132 11.7948 123.583 11.3756C124.046 10.9448 124.647 10.7294 125.387 10.7294C125.491 10.7294 125.589 10.7352 125.682 10.7468C125.774 10.7468 125.878 10.7526 125.994 10.7643V8.24908C125.115 8.24908 124.37 8.42375 123.757 8.77308C123.364 8.98939 123.041 9.27259 122.786 9.62268V8.38882H120.202ZM114.045 17.9256C113.051 17.9256 112.167 17.716 111.392 17.2968C110.629 16.8776 110.022 16.307 109.571 15.5851C109.132 14.8515 108.912 14.0189 108.912 13.0874C108.912 12.1442 109.132 11.3116 109.571 10.5896C110.022 9.85602 110.629 9.28544 111.392 8.87788C112.167 8.45868 113.051 8.24908 114.045 8.24908C115.028 8.24908 115.907 8.45868 116.681 8.87788C117.456 9.28544 118.063 9.8502 118.502 10.5722C118.942 11.2941 119.161 12.1325 119.161 13.0874C119.161 14.0189 118.942 14.8515 118.502 15.5851C118.063 16.307 117.456 16.8776 116.681 17.2968C115.907 17.716 115.028 17.9256 114.045 17.9256ZM114.045 15.6899C114.496 15.6899 114.901 15.5851 115.259 15.3755C115.618 15.1659 115.901 14.869 116.109 14.4847C116.317 14.0888 116.421 13.623 116.421 13.0874C116.421 12.5401 116.317 12.0743 116.109 11.69C115.901 11.3058 115.618 11.0088 115.259 10.7992C114.901 10.5896 114.496 10.4848 114.045 10.4848C113.594 10.4848 113.19 10.5896 112.831 10.7992C112.473 11.0088 112.184 11.3058 111.964 11.69C111.756 12.0743 111.652 12.5401 111.652 13.0874C111.652 13.623 111.756 14.0888 111.964 14.4847C112.184 14.869 112.473 15.1659 112.831 15.3755C113.19 15.5851 113.594 15.6899 114.045 15.6899ZM101.68 17.4016C102.27 17.751 102.958 17.9256 103.744 17.9256C104.623 17.9256 105.409 17.7277 106.103 17.3318C106.808 16.9358 107.363 16.3769 107.767 15.655C108.184 14.933 108.392 14.0771 108.392 13.0874C108.392 12.1092 108.184 11.2592 107.767 10.5372C107.363 9.81526 106.808 9.25633 106.103 8.86042C105.409 8.45286 104.623 8.24908 103.744 8.24908C102.923 8.24908 102.218 8.42375 101.628 8.77308C101.318 8.95678 101.046 9.19038 100.813 9.47389V8.38882H98.2292V21.1744H100.935V16.791C101.155 17.0342 101.404 17.2378 101.68 17.4016ZM104.472 15.3755C104.126 15.5851 103.727 15.6899 103.276 15.6899C102.825 15.6899 102.42 15.5851 102.062 15.3755C101.703 15.1659 101.42 14.869 101.212 14.4847C101.004 14.0888 100.9 13.623 100.9 13.0874C100.9 12.5401 101.004 12.0743 101.212 11.69C101.42 11.3058 101.703 11.0088 102.062 10.7992C102.42 10.5896 102.825 10.4848 103.276 10.4848C103.727 10.4848 104.126 10.5896 104.472 10.7992C104.831 11.0088 105.114 11.3058 105.322 11.69C105.542 12.0743 105.652 12.5401 105.652 13.0874C105.652 13.623 105.542 14.0888 105.322 14.4847C105.114 14.869 104.831 15.1659 104.472 15.3755ZM138.047 17.9256C138.833 17.9256 139.521 17.751 140.111 17.4016C140.387 17.2378 140.636 17.0342 140.856 16.791V17.7946H143.562V8.38882H140.978V9.47389C140.744 9.19038 140.473 8.95678 140.163 8.77308C139.573 8.42375 138.868 8.24908 138.047 8.24908C137.168 8.24908 136.382 8.45286 135.688 8.86042C134.983 9.25633 134.428 9.81526 134.024 10.5372C133.607 11.2592 133.399 12.1092 133.399 13.0874C133.399 14.0771 133.607 14.933 134.024 15.655C134.428 16.3769 134.983 16.9358 135.688 17.3318C136.382 17.7277 137.168 17.9256 138.047 17.9256ZM138.515 15.6899C138.064 15.6899 137.665 15.5851 137.319 15.3755C136.96 15.1659 136.677 14.869 136.469 14.4847C136.249 14.0888 136.139 13.623 136.139 13.0874C136.139 12.5401 136.249 12.0743 136.469 11.69C136.677 11.3058 136.96 11.0088 137.319 10.7992C137.665 10.5896 138.064 10.4848 138.515 10.4848C138.966 10.4848 139.371 10.5896 139.729 10.7992C140.088 11.0088 140.371 11.3058 140.579 11.69C140.787 12.0743 140.891 12.5401 140.891 13.0874C140.891 13.623 140.787 14.0888 140.579 14.4847C140.371 14.869 140.088 15.1659 139.729 15.3755C139.371 15.5851 138.966 15.6899 138.515 15.6899ZM65.6251 17.4016C66.2147 17.751 66.9026 17.9256 67.6888 17.9256C68.5675 17.9256 69.3537 17.7277 70.0474 17.3318C70.7526 16.9358 71.3076 16.3769 71.7122 15.655C72.1285 14.933 72.3366 14.0771 72.3366 13.0874C72.3366 12.1092 72.1285 11.2592 71.7122 10.5372C71.3076 9.81526 70.7526 9.25633 70.0474 8.86042C69.3537 8.45286 68.5675 8.24908 67.6888 8.24908C66.868 8.24908 66.1627 8.42375 65.5731 8.77308C65.263 8.95678 64.9913 9.19038 64.758 9.47389V8.38882H62.174V21.1744H64.8794V16.791C65.1 17.0342 65.3485 17.2378 65.6251 17.4016ZM68.4172 15.3755C68.0704 15.5851 67.6715 15.6899 67.2206 15.6899C66.7697 15.6899 66.365 15.5851 66.0066 15.3755C65.6482 15.1659 65.365 14.869 65.1568 14.4847C64.9487 14.0888 64.8447 13.623 64.8447 13.0874C64.8447 12.5401 64.9487 12.0743 65.1568 11.69C65.365 11.3058 65.6482 11.0088 66.0066 10.7992C66.365 10.5896 66.7697 10.4848 67.2206 10.4848C67.6715 10.4848 68.0704 10.5896 68.4172 10.7992C68.7756 11.0088 69.0589 11.3058 69.267 11.69C69.4866 12.0743 69.5965 12.5401 69.5965 13.0874C69.5965 13.623 69.4866 14.0888 69.267 14.4847C69.0589 14.869 68.7756 15.1659 68.4172 15.3755ZM94.5694 17.9256C93.471 17.9256 92.6155 17.6461 92.0027 17.0872C91.39 16.5166 91.0836 15.6724 91.0836 14.5545V10.7643V8.66825V6.31025H93.789V8.66825H96.8065V10.7643H93.789V14.5196C93.789 14.9155 93.893 15.2241 94.1011 15.4453C94.3092 15.6549 94.5925 15.7597 94.9509 15.7597H96.8065V17.9256H94.5694ZM128.04 17.0872C128.653 17.6461 129.509 17.9256 130.607 17.9256H132.844V15.7597H130.989C130.63 15.7597 130.347 15.6549 130.139 15.4453C129.931 15.2241 129.827 14.9155 129.827 14.5196V10.7643H132.844V8.66825H129.827V6.31025H127.121V8.66825V10.7643V14.5545C127.121 15.6724 127.428 16.5166 128.04 17.0872ZM84.164 17.7859V8.38882H86.748V9.62269C87.0029 9.27259 87.3266 8.98939 87.7192 8.77308C88.3319 8.42375 89.0776 8.24908 89.9563 8.24908V10.7643C89.8407 10.7526 89.7366 10.7468 89.6442 10.7468C89.5517 10.7352 89.4534 10.7294 89.3493 10.7294C88.6094 10.7294 88.0082 10.9448 87.5457 11.3756C87.0948 11.7948 86.8694 12.4527 86.8694 13.3494V17.7859H84.164ZM75.3392 17.2968C76.1139 17.716 76.9983 17.9256 77.9926 17.9256C78.9753 17.9256 79.854 17.716 80.6286 17.2968C81.4033 16.8776 82.0102 16.307 82.4496 15.5851C82.8889 14.8515 83.1086 14.0189 83.1086 13.0874C83.1086 12.1325 82.8889 11.2941 82.4496 10.5722C82.0102 9.8502 81.4033 9.28544 80.6286 8.87788C79.854 8.45868 78.9753 8.24908 77.9926 8.24908C76.9983 8.24908 76.1139 8.45868 75.3392 8.87788C74.5762 9.28544 73.9692 9.85602 73.5183 10.5896C73.079 11.3116 72.8593 12.1442 72.8593 13.0874C72.8593 14.0189 73.079 14.8515 73.5183 15.5851C73.9692 16.307 74.5762 16.8776 75.3392 17.2968ZM79.2066 15.3755C78.8482 15.5851 78.4435 15.6899 77.9926 15.6899C77.5417 15.6899 77.1371 15.5851 76.7786 15.3755C76.4202 15.1659 76.1312 14.869 75.9115 14.4847C75.7034 14.0888 75.5994 13.623 75.5994 13.0874C75.5994 12.5401 75.7034 12.0743 75.9115 11.69C76.1312 11.3058 76.4202 11.0088 76.7786 10.7992C77.1371 10.5896 77.5417 10.4848 77.9926 10.4848C78.4435 10.4848 78.8482 10.5896 79.2066 10.7992C79.565 11.0088 79.8482 11.3058 80.0563 11.69C80.2645 12.0743 80.3685 12.5401 80.3685 13.0874C80.3685 13.623 80.2645 14.0888 80.0563 14.4847C79.8482 14.869 79.565 15.1659 79.2066 15.3755ZM56.4662 17.9256C55.4026 17.9256 54.4661 17.716 53.6568 17.2968C52.859 16.8776 52.2405 16.307 51.8011 15.5851C51.3618 14.8515 51.1421 14.0189 51.1421 13.0874C51.1421 12.1442 51.356 11.3116 51.7838 10.5896C52.2231 9.85602 52.8186 9.28544 53.5701 8.87788C54.3216 8.45868 55.1713 8.24908 56.1194 8.24908C57.0327 8.24908 57.8536 8.44704 58.582 8.84295C59.3219 9.22722 59.9058 9.78615 60.3336 10.5198C60.7613 11.2417 60.9752 12.1092 60.9752 13.1223C60.9752 13.2271 60.9694 13.3494 60.9579 13.4891C60.9463 13.6172 60.9348 13.7394 60.9232 13.8559H53.8638C53.9183 14.106 54.0054 14.3389 54.125 14.5546C54.3562 14.9388 54.6742 15.2358 55.0788 15.4454C55.4951 15.6433 55.9806 15.7423 56.5356 15.7423C57.0327 15.7423 57.4663 15.6666 57.8363 15.5152C58.2178 15.3638 58.5646 15.1368 58.8768 14.834L60.3162 16.406C59.8884 16.8951 59.3508 17.2735 58.7034 17.5414C58.0559 17.7975 57.3102 17.9256 56.4662 17.9256ZM54.0903 11.4804C53.9635 11.7133 53.8776 11.9753 53.8326 12.2664H58.4273C58.3834 11.9704 58.2962 11.7026 58.1658 11.463C57.9692 11.102 57.6975 10.8225 57.3507 10.6246C57.0038 10.415 56.5992 10.3102 56.1367 10.3102C55.6743 10.3102 55.2638 10.415 54.9054 10.6246C54.5586 10.8225 54.2869 11.1078 54.0903 11.4804ZM47.4678 9.62268C47.7227 9.27259 48.0465 8.98939 48.439 8.77308C49.0517 8.42375 49.7974 8.24908 50.6761 8.24908V10.7643C50.5605 10.7526 50.4564 10.7468 50.364 10.7468C50.2715 10.7352 50.1732 10.7294 50.0691 10.7294C49.3292 10.7294 48.728 10.9448 48.2655 11.3756C47.8146 11.7948 47.5892 12.4527 47.5892 13.3494V17.7859H44.8838V8.38882H47.4678V9.62268Z" fill="#323C5C"/>
<path d="M47.6108 31.2464C47.1548 31.2464 46.7438 31.1444 46.3778 30.9404C46.0118 30.7304 45.7208 30.4394 45.5048 30.0674C45.2948 29.6954 45.1898 29.2574 45.1898 28.7534C45.1898 28.2434 45.2948 27.8024 45.5048 27.4304C45.7208 27.0584 46.0118 26.7704 46.3778 26.5664C46.7438 26.3624 47.1548 26.2604 47.6108 26.2604C48.0188 26.2604 48.3758 26.3504 48.6818 26.5304C48.9878 26.7104 49.2248 26.9834 49.3928 27.3494C49.5608 27.7154 49.6448 28.1834 49.6448 28.7534C49.6448 29.3174 49.5638 29.7854 49.4018 30.1574C49.2398 30.5234 49.0058 30.7964 48.6998 30.9764C48.3998 31.1564 48.0368 31.2464 47.6108 31.2464ZM47.8538 30.0944C48.0818 30.0944 48.2888 30.0404 48.4748 29.9324C48.6608 29.8244 48.8078 29.6714 48.9158 29.4734C49.0298 29.2694 49.0868 29.0294 49.0868 28.7534C49.0868 28.4714 49.0298 28.2314 48.9158 28.0334C48.8078 27.8354 48.6608 27.6824 48.4748 27.5744C48.2888 27.4664 48.0818 27.4124 47.8538 27.4124C47.6198 27.4124 47.4098 27.4664 47.2238 27.5744C47.0378 27.6824 46.8878 27.8354 46.7738 28.0334C46.6658 28.2314 46.6118 28.4714 46.6118 28.7534C46.6118 29.0294 46.6658 29.2694 46.7738 29.4734C46.8878 29.6714 47.0378 29.8244 47.2238 29.9324C47.4098 30.0404 47.6198 30.0944 47.8538 30.0944ZM49.1228 31.1744V30.1844L49.1498 28.7444L49.0598 27.3134V24.4964H50.4638V31.1744H49.1228ZM54.0672 31.2464C53.5512 31.2464 53.0922 31.1384 52.6902 30.9224C52.2942 30.7064 51.9792 30.4124 51.7452 30.0404C51.5172 29.6624 51.4032 29.2334 51.4032 28.7534C51.4032 28.2674 51.5172 27.8384 51.7452 27.4664C51.9792 27.0884 52.2942 26.7944 52.6902 26.5844C53.0922 26.3684 53.5512 26.2604 54.0672 26.2604C54.5772 26.2604 55.0332 26.3684 55.4352 26.5844C55.8372 26.7944 56.1522 27.0854 56.3802 27.4574C56.6082 27.8294 56.7222 28.2614 56.7222 28.7534C56.7222 29.2334 56.6082 29.6624 56.3802 30.0404C56.1522 30.4124 55.8372 30.7064 55.4352 30.9224C55.0332 31.1384 54.5772 31.2464 54.0672 31.2464ZM54.0672 30.0944C54.3012 30.0944 54.5112 30.0404 54.6972 29.9324C54.8832 29.8244 55.0302 29.6714 55.1382 29.4734C55.2462 29.2694 55.3002 29.0294 55.3002 28.7534C55.3002 28.4714 55.2462 28.2314 55.1382 28.0334C55.0302 27.8354 54.8832 27.6824 54.6972 27.5744C54.5112 27.4664 54.3012 27.4124 54.0672 27.4124C53.8332 27.4124 53.6232 27.4664 53.4372 27.5744C53.2512 27.6824 53.1012 27.8354 52.9872 28.0334C52.8792 28.2314 52.8252 28.4714 52.8252 28.7534C52.8252 29.0294 52.8792 29.2694 52.9872 29.4734C53.1012 29.6714 53.2512 29.8244 53.4372 29.9324C53.6232 30.0404 53.8332 30.0944 54.0672 30.0944ZM60.0007 31.2464C59.4787 31.2464 59.0137 31.1414 58.6057 30.9314C58.1977 30.7154 57.8767 30.4184 57.6427 30.0404C57.4147 29.6624 57.3007 29.2334 57.3007 28.7534C57.3007 28.2674 57.4147 27.8384 57.6427 27.4664C57.8767 27.0884 58.1977 26.7944 58.6057 26.5844C59.0137 26.3684 59.4787 26.2604 60.0007 26.2604C60.5107 26.2604 60.9547 26.3684 61.3327 26.5844C61.7107 26.7944 61.9897 27.0974 62.1697 27.4934L61.0807 28.0784C60.9547 27.8504 60.7957 27.6824 60.6037 27.5744C60.4177 27.4664 60.2137 27.4124 59.9917 27.4124C59.7517 27.4124 59.5357 27.4664 59.3437 27.5744C59.1517 27.6824 58.9987 27.8354 58.8847 28.0334C58.7767 28.2314 58.7227 28.4714 58.7227 28.7534C58.7227 29.0354 58.7767 29.2754 58.8847 29.4734C58.9987 29.6714 59.1517 29.8244 59.3437 29.9324C59.5357 30.0404 59.7517 30.0944 59.9917 30.0944C60.2137 30.0944 60.4177 30.0434 60.6037 29.9414C60.7957 29.8334 60.9547 29.6624 61.0807 29.4284L62.1697 30.0224C61.9897 30.4124 61.7107 30.7154 61.3327 30.9314C60.9547 31.1414 60.5107 31.2464 60.0007 31.2464ZM65.0211 31.2464C64.6191 31.2464 64.2591 31.1684 63.9411 31.0124C63.6291 30.8564 63.3861 30.6194 63.2121 30.3014C63.0381 29.9774 62.9511 29.5664 62.9511 29.0684V26.3324H64.3551V28.8614C64.3551 29.2634 64.4391 29.5604 64.6071 29.7524C64.7811 29.9384 65.0241 30.0314 65.3361 30.0314C65.5521 30.0314 65.7441 29.9864 65.9121 29.8964C66.0801 29.8004 66.2121 29.6564 66.3081 29.4644C66.4041 29.2664 66.4521 29.0204 66.4521 28.7264V26.3324H67.8561V31.1744H66.5241V29.8424L66.7671 30.2294C66.6051 30.5654 66.3651 30.8204 66.0471 30.9944C65.7351 31.1624 65.3931 31.2464 65.0211 31.2464ZM75.3578 26.2604C75.7418 26.2604 76.0808 26.3384 76.3748 26.4944C76.6748 26.6444 76.9088 26.8784 77.0768 27.1964C77.2508 27.5084 77.3378 27.9104 77.3378 28.4024V31.1744H75.9338V28.6184C75.9338 28.2284 75.8528 27.9404 75.6908 27.7544C75.5288 27.5684 75.3008 27.4754 75.0068 27.4754C74.8028 27.4754 74.6198 27.5234 74.4578 27.6194C74.2958 27.7094 74.1698 27.8474 74.0798 28.0334C73.9898 28.2194 73.9448 28.4564 73.9448 28.7444V31.1744H72.5408V28.6184C72.5408 28.2284 72.4598 27.9404 72.2978 27.7544C72.1418 27.5684 71.9168 27.4754 71.6228 27.4754C71.4188 27.4754 71.2358 27.5234 71.0738 27.6194C70.9118 27.7094 70.7858 27.8474 70.6958 28.0334C70.6058 28.2194 70.5608 28.4564 70.5608 28.7444V31.1744H69.1568V26.3324H70.4978V27.6554L70.2458 27.2684C70.4138 26.9384 70.6508 26.6894 70.9568 26.5214C71.2688 26.3474 71.6228 26.2604 72.0188 26.2604C72.4628 26.2604 72.8498 26.3744 73.1798 26.6024C73.5158 26.8244 73.7378 27.1664 73.8458 27.6284L73.3508 27.4934C73.5128 27.1154 73.7708 26.8154 74.1248 26.5934C74.4848 26.3714 74.8958 26.2604 75.3578 26.2604ZM81.0344 31.2464C80.4824 31.2464 79.9964 31.1384 79.5764 30.9224C79.1624 30.7064 78.8414 30.4124 78.6134 30.0404C78.3854 29.6624 78.2714 29.2334 78.2714 28.7534C78.2714 28.2674 78.3824 27.8384 78.6044 27.4664C78.8324 27.0884 79.1414 26.7944 79.5314 26.5844C79.9214 26.3684 80.3624 26.2604 80.8544 26.2604C81.3284 26.2604 81.7544 26.3624 82.1324 26.5664C82.5164 26.7644 82.8194 27.0524 83.0414 27.4304C83.2634 27.8024 83.3744 28.2494 83.3744 28.7714C83.3744 28.8254 83.3714 28.8884 83.3654 28.9604C83.3594 29.0264 83.3534 29.0894 83.3474 29.1494H79.4144V28.3304H82.6094L82.0694 28.5734C82.0694 28.3214 82.0184 28.1024 81.9164 27.9164C81.8144 27.7304 81.6734 27.5864 81.4934 27.4844C81.3134 27.3764 81.1034 27.3224 80.8634 27.3224C80.6234 27.3224 80.4104 27.3764 80.2244 27.4844C80.0444 27.5864 79.9034 27.7334 79.8014 27.9254C79.6994 28.1114 79.6484 28.3334 79.6484 28.5914V28.8074C79.6484 29.0714 79.7054 29.3054 79.8194 29.5094C79.9394 29.7074 80.1044 29.8604 80.3144 29.9684C80.5304 30.0704 80.7824 30.1214 81.0704 30.1214C81.3284 30.1214 81.5534 30.0824 81.7454 30.0044C81.9434 29.9264 82.1234 29.8094 82.2854 29.6534L83.0324 30.4634C82.8104 30.7154 82.5314 30.9104 82.1954 31.0484C81.8594 31.1804 81.4724 31.2464 81.0344 31.2464ZM87.2521 26.2604C87.6361 26.2604 87.9781 26.3384 88.2781 26.4944C88.5841 26.6444 88.8241 26.8784 88.9981 27.1964C89.1721 27.5084 89.2591 27.9104 89.2591 28.4024V31.1744H87.8551V28.6184C87.8551 28.2284 87.7681 27.9404 87.5941 27.7544C87.4261 27.5684 87.1861 27.4754 86.8741 27.4754C86.6521 27.4754 86.4511 27.5234 86.2711 27.6194C86.0971 27.7094 85.9591 27.8504 85.8571 28.0424C85.7611 28.2344 85.7131 28.4804 85.7131 28.7804V31.1744H84.3091V26.3324H85.6501V27.6734L85.3981 27.2684C85.5721 26.9444 85.8211 26.6954 86.1451 26.5214C86.4691 26.3474 86.8381 26.2604 87.2521 26.2604ZM92.5118 31.2464C91.9418 31.2464 91.4978 31.1024 91.1798 30.8144C90.8618 30.5204 90.7028 30.0854 90.7028 29.5094V25.2614H92.1068V29.4914C92.1068 29.6954 92.1608 29.8544 92.2688 29.9684C92.3768 30.0764 92.5238 30.1304 92.7098 30.1304C92.9318 30.1304 93.1208 30.0704 93.2768 29.9504L93.6548 30.9404C93.5108 31.0424 93.3368 31.1204 93.1328 31.1744C92.9348 31.2224 92.7278 31.2464 92.5118 31.2464ZM89.9558 27.5204V26.4404H93.3128V27.5204H89.9558ZM97.4129 31.1744V30.2294L97.3229 30.0224V28.3304C97.3229 28.0304 97.2299 27.7964 97.0439 27.6284C96.8639 27.4604 96.5849 27.3764 96.2069 27.3764C95.9489 27.3764 95.6939 27.4184 95.4419 27.5024C95.1959 27.5804 94.9859 27.6884 94.8119 27.8264L94.3079 26.8454C94.5719 26.6594 94.8899 26.5154 95.2619 26.4134C95.6339 26.3114 96.0119 26.2604 96.3959 26.2604C97.1339 26.2604 97.7069 26.4344 98.1149 26.7824C98.5229 27.1304 98.7269 27.6734 98.7269 28.4114V31.1744H97.4129ZM95.9369 31.2464C95.5589 31.2464 95.2349 31.1834 94.9649 31.0574C94.6949 30.9254 94.4879 30.7484 94.3439 30.5264C94.1999 30.3044 94.1279 30.0554 94.1279 29.7794C94.1279 29.4914 94.1969 29.2394 94.3349 29.0234C94.4789 28.8074 94.7039 28.6394 95.0099 28.5194C95.3159 28.3934 95.7149 28.3304 96.2069 28.3304H97.4939V29.1494H96.3599C96.0299 29.1494 95.8019 29.2034 95.6759 29.3114C95.5559 29.4194 95.4959 29.5544 95.4959 29.7164C95.4959 29.8964 95.5649 30.0404 95.7029 30.1484C95.8469 30.2504 96.0419 30.3014 96.2879 30.3014C96.5219 30.3014 96.7319 30.2474 96.9179 30.1394C97.1039 30.0254 97.2389 29.8604 97.3229 29.6444L97.5389 30.2924C97.4369 30.6044 97.2509 30.8414 96.9809 31.0034C96.7109 31.1654 96.3629 31.2464 95.9369 31.2464ZM101.978 31.2464C101.408 31.2464 100.964 31.1024 100.646 30.8144C100.328 30.5204 100.169 30.0854 100.169 29.5094V25.2614H101.573V29.4914C101.573 29.6954 101.627 29.8544 101.735 29.9684C101.843 30.0764 101.99 30.1304 102.176 30.1304C102.398 30.1304 102.587 30.0704 102.743 29.9504L103.121 30.9404C102.977 31.0424 102.803 31.1204 102.599 31.1744C102.401 31.2224 102.194 31.2464 101.978 31.2464ZM99.4216 27.5204V26.4404H102.779V27.5204H99.4216ZM103.909 31.1744V26.3324H105.313V31.1744H103.909ZM104.611 25.6574C104.353 25.6574 104.143 25.5824 103.981 25.4324C103.819 25.2824 103.738 25.0964 103.738 24.8744C103.738 24.6524 103.819 24.4664 103.981 24.3164C104.143 24.1664 104.353 24.0914 104.611 24.0914C104.869 24.0914 105.079 24.1634 105.241 24.3074C105.403 24.4454 105.484 24.6254 105.484 24.8474C105.484 25.0814 105.403 25.2764 105.241 25.4324C105.085 25.5824 104.875 25.6574 104.611 25.6574ZM108.92 31.2464C108.404 31.2464 107.945 31.1384 107.543 30.9224C107.147 30.7064 106.832 30.4124 106.598 30.0404C106.37 29.6624 106.256 29.2334 106.256 28.7534C106.256 28.2674 106.37 27.8384 106.598 27.4664C106.832 27.0884 107.147 26.7944 107.543 26.5844C107.945 26.3684 108.404 26.2604 108.92 26.2604C109.43 26.2604 109.886 26.3684 110.288 26.5844C110.69 26.7944 111.005 27.0854 111.233 27.4574C111.461 27.8294 111.575 28.2614 111.575 28.7534C111.575 29.2334 111.461 29.6624 111.233 30.0404C111.005 30.4124 110.69 30.7064 110.288 30.9224C109.886 31.1384 109.43 31.2464 108.92 31.2464ZM108.92 30.0944C109.154 30.0944 109.364 30.0404 109.55 29.9324C109.736 29.8244 109.883 29.6714 109.991 29.4734C110.099 29.2694 110.153 29.0294 110.153 28.7534C110.153 28.4714 110.099 28.2314 109.991 28.0334C109.883 27.8354 109.736 27.6824 109.55 27.5744C109.364 27.4664 109.154 27.4124 108.92 27.4124C108.686 27.4124 108.476 27.4664 108.29 27.5744C108.104 27.6824 107.954 27.8354 107.84 28.0334C107.732 28.2314 107.678 28.4714 107.678 28.7534C107.678 29.0294 107.732 29.2694 107.84 29.4734C107.954 29.6714 108.104 29.8244 108.29 29.9324C108.476 30.0404 108.686 30.0944 108.92 30.0944ZM115.456 26.2604C115.84 26.2604 116.182 26.3384 116.482 26.4944C116.788 26.6444 117.028 26.8784 117.202 27.1964C117.376 27.5084 117.463 27.9104 117.463 28.4024V31.1744H116.059V28.6184C116.059 28.2284 115.972 27.9404 115.798 27.7544C115.63 27.5684 115.39 27.4754 115.078 27.4754C114.856 27.4754 114.655 27.5234 114.475 27.6194C114.301 27.7094 114.163 27.8504 114.061 28.0424C113.965 28.2344 113.917 28.4804 113.917 28.7804V31.1744H112.513V26.3324H113.854V27.6734L113.602 27.2684C113.776 26.9444 114.025 26.6954 114.349 26.5214C114.673 26.3474 115.042 26.2604 115.456 26.2604Z" fill="#323C5C"/>
</svg>
