<svg width="135" height="32" viewBox="0 0 135 32" fill="none" xmlns="http://www.w3.org/2000/svg">
<rect width="134.004" height="32" fill="white"/>
<path d="M24.803 17.8L31.365 11.238C30.2818 7.65942 27.9543 4.5863 24.803 2.57402V17.8Z" fill="#009DBB"/>
<path d="M23.803 10.8V1.98002C21.4103 0.676168 18.7279 -0.00473068 16.003 2.47388e-05C15.0767 0.000889352 14.1521 0.0798355 13.239 0.236025L23.803 10.8Z" fill="#009DBB"/>
<path d="M11.403 7.80002H2.14901C0.169965 11.122 -0.473421 15.0717 0.349015 18.85L11.403 7.80002Z" fill="#009DBB"/>
<path d="M29.857 23.4C31.8328 20.0813 32.4761 16.1366 31.657 12.362L20.617 23.4H29.857Z" fill="#009DBB"/>
<path d="M7.20301 13.414L0.645015 19.972C1.72931 23.5463 4.05514 26.6155 7.20301 28.626V13.414Z" fill="#009DBB"/>
<path d="M18.389 6.80002L12.067 0.478025C8.31453 1.39823 5.02096 3.64342 2.79301 6.80002H18.389Z" fill="#009DBB"/>
<path d="M13.817 24.4L20.099 30.682C23.787 29.7376 27.0181 27.5105 29.213 24.4H13.817Z" fill="#009DBB"/>
<path d="M8.20301 20.2V29.22C10.5958 30.5239 13.2781 31.2048 16.003 31.2C16.987 31.1992 17.9689 31.1101 18.937 30.934L8.20301 20.2Z" fill="#009DBB"/>
<path fill-rule="evenodd" clip-rule="evenodd" d="M119.677 14.5737H122V2.01367H119.677V14.5737ZM86.8706 14.5732V10.3853L86.8725 10.3815H88.4751C89.7023 10.3815 90.6621 10.0434 91.3545 9.36713C92.0469 8.69086 92.3931 7.76952 92.3931 6.60311C92.3931 5.43669 92.0426 4.48805 91.3415 3.75718C90.6404 3.02631 89.701 2.66088 88.5235 2.66088H84.4658V14.5732H86.8706ZM43.6018 10.2259H42.4013V14.5776H40.0039V2.66527H43.84C45.0449 2.66527 45.9756 2.97548 46.632 3.59591C47.2884 4.21635 47.6154 5.10667 47.6129 6.26688C47.6129 7.84774 47.0378 8.95459 45.8875 9.58743L47.9852 14.464V14.5794H45.3942L43.6018 10.2259ZM42.4013 8.22272H43.7675C44.1842 8.25118 44.5882 8.07219 44.8471 7.74437C45.1038 7.36836 45.23 6.91848 45.2063 6.4638C45.2112 5.26388 44.7478 4.66392 43.8159 4.66392H42.4013V8.22272ZM49.5002 13.675C50.1654 14.3835 51.0923 14.7378 52.281 14.7378L52.2885 14.7415C52.8936 14.7492 53.4933 14.6274 54.0474 14.3841C54.5365 14.1815 54.963 13.8526 55.2833 13.4311L54.375 12.0333C53.873 12.5666 53.1677 12.8611 52.4355 12.843C51.9019 12.843 51.5067 12.6897 51.2499 12.3832C50.993 12.0767 50.8484 11.5922 50.8162 10.9296H55.4136V9.79416C55.3987 8.3957 55.1127 7.34097 54.5555 6.62995C53.9984 5.91894 53.1614 5.56343 52.0446 5.56343C50.9043 5.56343 50.0289 5.94251 49.4184 6.70068C48.8078 7.45885 48.5026 8.53592 48.5026 9.9319V10.6317C48.5026 11.952 48.8351 12.9664 49.5002 13.675ZM50.8331 9.31704H53.1485V9.09554C53.1639 8.67544 53.0736 8.2582 52.8861 7.88198C52.7223 7.60651 52.4388 7.46877 52.0355 7.46877C51.682 7.43983 51.3414 7.60799 51.1495 7.90617C50.9708 8.19778 50.8653 8.66807 50.8331 9.31704ZM62.7173 13.6316C63.1951 12.8908 63.4339 11.8249 63.4339 10.4339H63.4507V9.75824C63.4408 8.33621 63.1969 7.28147 62.7192 6.59403C62.2415 5.90659 61.5311 5.56287 60.588 5.56287C59.8561 5.54621 59.1695 5.91604 58.7807 6.53633L58.6895 5.72667H56.5471V17.987H58.8514V13.8736C59.2473 14.4366 59.8981 14.7648 60.5862 14.7484C61.5292 14.7447 62.2396 14.3724 62.7173 13.6316ZM61.1274 9.86116C61.1274 9.00248 61.033 8.39508 60.8444 8.03895C60.664 7.68714 60.2915 7.47641 59.897 7.50289C59.4628 7.47983 59.0557 7.71473 58.8584 8.10223V12.2622C59.0655 12.6458 59.4792 12.8713 59.9138 12.8374C60.3235 12.8674 60.7068 12.6331 60.8668 12.2548C61.0442 11.8664 61.1329 11.2621 61.1329 10.4419V9.85744L61.1274 9.86116ZM65.3155 6.69666C64.6827 7.46475 64.3663 8.51949 64.3663 9.86086V9.86645V10.4248C64.3663 11.7737 64.6814 12.8284 65.3118 13.589C65.9422 14.3497 66.8244 14.73 67.9586 14.73C69.0877 14.735 69.9657 14.3559 70.5923 13.5928C71.2189 12.8296 71.5323 11.7749 71.5323 10.4286V9.87017C71.531 8.51763 71.2146 7.45979 70.583 6.69666C69.9514 5.93353 69.071 5.55196 67.9418 5.55196C66.8238 5.547 65.9484 5.92856 65.3155 6.69666ZM66.6894 10.4439C66.6894 12.0347 67.1119 12.8301 67.9569 12.8301C68.7362 12.8301 69.1562 12.1662 69.217 10.8385V9.85945C69.217 9.04792 69.1053 8.44548 68.882 8.05213C68.7058 7.68913 68.3362 7.46014 67.9327 7.46396C67.5382 7.46528 67.1799 7.69446 67.0132 8.05213C66.7924 8.44424 66.6819 9.04668 66.6819 9.85945V10.4439H66.6894ZM76.3237 7.89013L77.0924 7.95527L77.126 5.67332C76.9224 5.59546 76.7053 5.55937 76.4875 5.56723C75.8435 5.56723 75.3391 5.93949 74.9743 6.684L74.9073 5.7273H72.724V14.5722H75.0394V8.72399C75.2628 8.16808 75.6909 7.89013 76.3237 7.89013ZM81.0601 3.54722V5.7268H82.2458V7.45595H81.0601V11.8561C81.0378 12.1049 81.0876 12.355 81.2034 12.5764C81.299 12.7079 81.4851 12.7737 81.7618 12.7737C81.946 12.7778 82.1299 12.7584 82.3091 12.716L82.2867 14.5289C81.878 14.6792 81.4454 14.7543 81.0099 14.7504C79.5208 14.7504 78.7658 13.8936 78.7447 12.1799V7.45595H77.7228V5.7268H78.7447V3.54722H81.0601ZM86.8715 8.38094H88.5243C88.9294 8.40448 89.3223 8.23796 89.5871 7.93051C89.8353 7.63022 89.9594 7.19592 89.9594 6.6276C89.9851 6.12587 89.8502 5.629 89.5741 5.20929C89.3443 4.86712 88.9588 4.66245 88.5466 4.66393H86.8715V8.38094ZM93.9505 6.70598C93.3177 7.47408 93.0013 8.52881 93.0013 9.87019V9.87577V10.4342C93.0013 11.783 93.3164 12.8377 93.9468 13.5984C94.5772 14.359 95.4594 14.7393 96.5936 14.7393C97.7228 14.7443 98.6007 14.3652 99.2273 13.6021C99.8539 12.839 100.167 11.7842 100.167 10.4379V9.87949C100.166 8.52695 99.8496 7.46911 99.218 6.70598C98.5864 5.94285 97.706 5.56128 96.5768 5.56128C95.4588 5.55632 94.5834 5.93789 93.9505 6.70598ZM95.3233 10.4527C95.3233 12.0435 95.7458 12.8389 96.5908 12.8389C97.3701 12.8389 97.7901 12.175 97.8509 10.8473V9.86822C97.8509 9.0567 97.7393 8.45426 97.5159 8.0609C97.3397 7.6979 96.9701 7.46891 96.5666 7.47273C96.1721 7.47405 95.8138 7.70324 95.6472 8.0609C95.4263 8.45302 95.3158 9.05546 95.3158 9.86822V10.4527H95.3233ZM104.957 7.89943L105.726 7.96458L105.75 5.67332C105.547 5.59546 105.33 5.55937 105.112 5.56723C104.468 5.56723 103.963 5.93949 103.599 6.684L103.534 5.7273H101.35V14.5815H103.673V8.73329C103.896 8.17739 104.325 7.89943 104.957 7.89943ZM109.686 3.54722V5.7268H110.871V7.45595H109.686V11.8561C109.663 12.1049 109.713 12.355 109.829 12.5764C109.924 12.7079 110.111 12.7737 110.387 12.7737C110.571 12.7778 110.755 12.7584 110.935 12.716L110.914 14.5289C110.505 14.6792 110.073 14.7543 109.637 14.7504C108.148 14.7504 107.393 13.8936 107.372 12.1799V7.45595H106.35V5.7268H107.372V3.54722H109.686ZM115.986 13.8868C116.025 14.1222 116.091 14.3526 116.181 14.5736V14.5755H118.513V14.4359C118.306 14.0053 118.197 13.4084 118.186 12.6453V8.48157C118.186 7.54347 117.919 6.82253 117.387 6.31874C116.855 5.81495 116.103 5.56305 115.133 5.56305C114.286 5.53157 113.457 5.81541 112.806 6.35969C112.208 6.85964 111.869 7.605 111.887 8.38478H114.202C114.202 7.70851 114.492 7.37037 115.07 7.37037C115.296 7.35541 115.517 7.44613 115.667 7.61606C115.804 7.77986 115.872 8.06091 115.872 8.45923V9.15908H115.168C114.057 9.16901 113.205 9.42773 112.613 9.93524C112.021 10.4428 111.725 11.16 111.725 12.0869C111.697 12.7957 111.962 13.4848 112.457 13.9929C112.941 14.4863 113.61 14.756 114.301 14.7374C114.97 14.7571 115.604 14.4371 115.986 13.8868ZM114.815 12.9212C115.044 12.9285 115.27 12.8752 115.471 12.7667C115.633 12.6784 115.771 12.5503 115.871 12.3945V10.5537H115.312C114.962 10.5343 114.622 10.6706 114.382 10.9259C114.145 11.2063 114.024 11.5664 114.043 11.9329C114.045 12.5943 114.303 12.925 114.815 12.925V12.9212Z" fill="#2F3C5F"/>
<path d="M46.3506 26.1041C46.3506 26.9399 46.185 27.6387 45.8536 28.2005C45.5257 28.7589 45.0496 29.1802 44.4252 29.4645C43.8008 29.7453 43.0491 29.8858 42.1701 29.8858H40.0039V22.4645H42.4055C43.2078 22.4645 43.9037 22.6032 44.4932 22.8807C45.0827 23.1548 45.5396 23.5626 45.864 24.1041C46.1884 24.6421 46.3506 25.3088 46.3506 26.1041ZM44.6659 26.1447C44.6659 25.5964 44.5821 25.1464 44.4147 24.7944C44.2508 24.4391 44.0066 24.1768 43.6822 24.0076C43.3613 23.8384 42.9636 23.7538 42.4892 23.7538H41.6259V28.5863H42.3218C43.1136 28.5863 43.7014 28.3816 44.0851 27.9721C44.4723 27.5626 44.6659 26.9535 44.6659 26.1447Z" fill="#8791AB"/>
<path d="M53.1264 27.0381C53.1264 27.5118 53.0601 27.9315 52.9276 28.2969C52.7985 28.6624 52.6084 28.9721 52.3573 29.2259C52.1096 29.4763 51.8096 29.6658 51.4573 29.7944C51.1085 29.923 50.7143 29.9873 50.2748 29.9873C49.8632 29.9873 49.4848 29.923 49.1394 29.7944C48.7976 29.6658 48.4994 29.4763 48.2447 29.2259C47.9936 28.9721 47.7982 28.6624 47.6587 28.2969C47.5227 27.9315 47.4546 27.5118 47.4546 27.0381C47.4546 26.4086 47.5698 25.8756 47.8 25.4391C48.0302 25.0025 48.3581 24.6709 48.7836 24.4442C49.2092 24.2174 49.7167 24.1041 50.3062 24.1041C50.8539 24.1041 51.3387 24.2174 51.7608 24.4442C52.1864 24.6709 52.5195 25.0025 52.7602 25.4391C53.0043 25.8756 53.1264 26.4086 53.1264 27.0381ZM49.0819 27.0381C49.0819 27.4103 49.1237 27.7233 49.2075 27.9772C49.2912 28.231 49.422 28.4222 49.5999 28.5508C49.7778 28.6794 50.0097 28.7436 50.2958 28.7436C50.5783 28.7436 50.8068 28.6794 50.9812 28.5508C51.1591 28.4222 51.2881 28.231 51.3684 27.9772C51.4521 27.7233 51.494 27.4103 51.494 27.0381C51.494 26.6624 51.4521 26.3511 51.3684 26.1041C51.2881 25.8536 51.1591 25.6658 50.9812 25.5406C50.8033 25.4154 50.5713 25.3528 50.2853 25.3528C49.8632 25.3528 49.5563 25.4932 49.3644 25.7741C49.1761 26.055 49.0819 26.4763 49.0819 27.0381Z" fill="#8791AB"/>
<path d="M56.8204 29.9873C56.2414 29.9873 55.7478 29.8858 55.3397 29.6827C54.9315 29.4763 54.6211 29.1582 54.4083 28.7284C54.1955 28.2986 54.0892 27.7487 54.0892 27.0787C54.0892 26.3849 54.2095 25.8198 54.4502 25.3832C54.6944 24.9433 55.031 24.6201 55.46 24.4137C55.8925 24.2073 56.3931 24.1041 56.9617 24.1041C57.3663 24.1041 57.7151 24.143 58.0081 24.2208C58.3046 24.2953 58.5627 24.3849 58.7825 24.4898L58.3116 25.6878C58.0604 25.5897 57.8267 25.5101 57.6105 25.4492C57.3942 25.3849 57.1779 25.3528 56.9617 25.3528C56.6826 25.3528 56.4506 25.4171 56.2658 25.5457C56.0809 25.6709 55.9431 25.8604 55.8524 26.1142C55.7617 26.368 55.7164 26.6861 55.7164 27.0685C55.7164 27.4442 55.7652 27.7555 55.8629 28.0025C55.9606 28.2496 56.1018 28.434 56.2867 28.5558C56.4716 28.6743 56.6966 28.7335 56.9617 28.7335C57.293 28.7335 57.5878 28.6912 57.8459 28.6066C58.104 28.5186 58.3552 28.3968 58.5994 28.2411V29.566C58.3552 29.7149 58.0988 29.8215 57.8302 29.8858C57.5651 29.9535 57.2285 29.9873 56.8204 29.9873Z" fill="#8791AB"/>
<path d="M65.3281 24.2107V29.8858H64.1037L63.8892 29.1599H63.8055C63.6799 29.3528 63.5229 29.5101 63.3346 29.632C63.1462 29.7538 62.9387 29.8435 62.7119 29.901C62.4852 29.9585 62.2497 29.9873 62.0056 29.9873C61.587 29.9873 61.2225 29.9162 60.912 29.7741C60.6016 29.6286 60.3591 29.4035 60.1847 29.099C60.0138 28.7944 59.9284 28.3985 59.9284 27.9112V24.2107H61.5242V27.5254C61.5242 27.9315 61.5992 28.2377 61.7492 28.4442C61.8992 28.6506 62.1381 28.7538 62.466 28.7538C62.7904 28.7538 63.045 28.6827 63.2299 28.5406C63.4148 28.3951 63.5438 28.1836 63.6171 27.9061C63.6938 27.6252 63.7322 27.2834 63.7322 26.8807V24.2107H65.3281Z" fill="#8791AB"/>
<path d="M73.8723 24.1041C74.5351 24.1041 75.0356 24.2699 75.374 24.6015C75.7158 24.9298 75.8868 25.4577 75.8868 26.1853V29.8858H74.2857V26.5711C74.2857 26.165 74.2142 25.8587 74.0712 25.6523C73.9281 25.4458 73.7066 25.3426 73.4067 25.3426C72.9846 25.3426 72.6846 25.4898 72.5067 25.7843C72.3288 26.0753 72.2399 26.4932 72.2399 27.0381V29.8858H70.644V26.5711C70.644 26.3003 70.6126 26.0736 70.5498 25.8909C70.4871 25.7081 70.3911 25.5711 70.2621 25.4797C70.133 25.3883 69.9673 25.3426 69.765 25.3426C69.4685 25.3426 69.2348 25.4154 69.0639 25.5609C68.8965 25.703 68.7761 25.9145 68.7029 26.1954C68.6331 26.4729 68.5982 26.813 68.5982 27.2157V29.8858H67.0024V24.2107H68.2215L68.436 24.9365H68.525C68.6436 24.7403 68.7918 24.5812 68.9697 24.4594C69.1511 24.3376 69.3499 24.2479 69.5662 24.1904C69.7824 24.1328 70.0022 24.1041 70.2254 24.1041C70.6545 24.1041 71.0173 24.1717 71.3138 24.3071C71.6137 24.4425 71.844 24.6523 72.0044 24.9365H72.1457C72.3201 24.6455 72.566 24.434 72.8834 24.302C73.2043 24.17 73.534 24.1041 73.8723 24.1041Z" fill="#8791AB"/>
<path d="M79.9418 24.1041C80.4824 24.1041 80.9481 24.2056 81.3388 24.4086C81.7294 24.6083 82.0312 24.8993 82.244 25.2817C82.4567 25.6641 82.5631 26.1311 82.5631 26.6827V27.434H78.7907C78.8081 27.8706 78.9424 28.214 79.1935 28.4645C79.4482 28.7115 79.8005 28.835 80.2505 28.835C80.6237 28.835 80.9655 28.7978 81.276 28.7233C81.5864 28.6489 81.9056 28.5372 82.2335 28.3883V29.5863C81.944 29.725 81.6405 29.8266 81.3231 29.8909C81.0091 29.9552 80.6272 29.9873 80.1772 29.9873C79.5912 29.9873 79.0715 29.8824 78.618 29.6726C78.168 29.4628 77.814 29.143 77.5558 28.7132C77.3012 28.2834 77.1739 27.742 77.1739 27.0888C77.1739 26.4255 77.289 25.8739 77.5192 25.434C77.7529 24.9907 78.0773 24.659 78.4924 24.4391C78.9075 24.2157 79.3906 24.1041 79.9418 24.1041ZM79.9522 25.2056C79.6418 25.2056 79.3837 25.302 79.1778 25.4949C78.9755 25.6878 78.8587 25.9907 78.8273 26.4035H81.0667C81.0632 26.1734 81.0196 25.9687 80.9359 25.7893C80.8557 25.61 80.7336 25.4678 80.5696 25.3629C80.4092 25.258 80.2034 25.2056 79.9522 25.2056Z" fill="#8791AB"/>
<path d="M87.1832 24.1041C87.8076 24.1041 88.3099 24.2699 88.6901 24.6015C89.0703 24.9298 89.2604 25.4577 89.2604 26.1853V29.8858H87.6646V26.5711C87.6646 26.165 87.5878 25.8587 87.4344 25.6523C87.2844 25.4458 87.0472 25.3426 86.7228 25.3426C86.2344 25.3426 85.9013 25.5034 85.7234 25.8249C85.5455 26.1464 85.4566 26.61 85.4566 27.2157V29.8858H83.8607V24.2107H85.0798L85.2944 24.9365H85.3833C85.5089 24.7403 85.6641 24.5812 85.849 24.4594C86.0373 24.3376 86.2449 24.2479 86.4716 24.1904C86.7018 24.1328 86.939 24.1041 87.1832 24.1041Z" fill="#8791AB"/>
<path d="M93.3677 28.7538C93.5421 28.7538 93.7113 28.7369 93.8753 28.703C94.0427 28.6692 94.2084 28.6269 94.3723 28.5761V29.7284C94.2014 29.8029 93.9886 29.8638 93.734 29.9112C93.4828 29.9619 93.2073 29.9873 92.9073 29.9873C92.5585 29.9873 92.2445 29.9332 91.9655 29.8249C91.6899 29.7132 91.4719 29.522 91.3115 29.2513C91.1545 28.9772 91.076 28.5964 91.076 28.1091V25.3731H90.3121V24.7183L91.1911 24.2005L91.6516 23.0025H92.6719V24.2107H94.3095V25.3731H92.6719V28.1091C92.6719 28.3257 92.7346 28.4882 92.8602 28.5964C92.9893 28.7013 93.1585 28.7538 93.3677 28.7538Z" fill="#8791AB"/>
<path d="M97.9564 24.0939C98.7413 24.0939 99.343 24.2597 99.7616 24.5914C100.18 24.923 100.389 25.4272 100.389 26.1041V29.8858H99.275L98.9663 29.1142H98.9244C98.757 29.3173 98.586 29.4831 98.4116 29.6117C98.2372 29.7403 98.0367 29.835 97.8099 29.8959C97.5832 29.9568 97.3076 29.9873 96.9832 29.9873C96.6379 29.9873 96.3275 29.923 96.0519 29.7944C95.7798 29.6658 95.5653 29.4695 95.4083 29.2056C95.2514 28.9382 95.1729 28.5998 95.1729 28.1904C95.1729 27.588 95.3909 27.1447 95.8269 26.8604C96.2629 26.5728 96.917 26.4137 97.789 26.3832L98.8041 26.3528V26.1041C98.8041 25.8063 98.7238 25.588 98.5634 25.4492C98.4029 25.3105 98.1797 25.2411 97.8936 25.2411C97.6111 25.2411 97.3338 25.28 97.0617 25.3579C96.7896 25.4357 96.5176 25.5338 96.2455 25.6523L95.717 24.6066C96.0275 24.4475 96.3745 24.3223 96.7582 24.231C97.1454 24.1396 97.5448 24.0939 97.9564 24.0939ZM98.8041 27.2563L98.1867 27.2766C97.6704 27.2902 97.3111 27.3799 97.1088 27.5457C96.91 27.7115 96.8106 27.9298 96.8106 28.2005C96.8106 28.4374 96.8821 28.6066 97.0251 28.7081C97.1681 28.8063 97.3547 28.8553 97.5849 28.8553C97.9268 28.8553 98.2146 28.7572 98.4483 28.5609C98.6855 28.3646 98.8041 28.0854 98.8041 27.7233V27.2563Z" fill="#8791AB"/>
<path d="M104.502 28.7538C104.676 28.7538 104.846 28.7369 105.01 28.703C105.177 28.6692 105.343 28.6269 105.507 28.5761V29.7284C105.336 29.8029 105.123 29.8638 104.868 29.9112C104.617 29.9619 104.342 29.9873 104.042 29.9873C103.693 29.9873 103.379 29.9332 103.1 29.8249C102.824 29.7132 102.606 29.522 102.446 29.2513C102.289 28.9772 102.21 28.5964 102.21 28.1091V25.3731H101.446V24.7183L102.325 24.2005L102.786 23.0025H103.806V24.2107H105.444V25.3731H103.806V28.1091C103.806 28.3257 103.869 28.4882 103.994 28.5964C104.124 28.7013 104.293 28.7538 104.502 28.7538Z" fill="#8791AB"/>
<path d="M108.29 24.2107V29.8858H106.694V24.2107H108.29ZM107.495 21.9873C107.732 21.9873 107.936 22.0415 108.107 22.1497C108.278 22.2546 108.363 22.4526 108.363 22.7436C108.363 23.0313 108.278 23.231 108.107 23.3426C107.936 23.4509 107.732 23.5051 107.495 23.5051C107.254 23.5051 107.048 23.4509 106.877 23.3426C106.71 23.231 106.626 23.0313 106.626 22.7436C106.626 22.4526 106.71 22.2546 106.877 22.1497C107.048 22.0415 107.254 21.9873 107.495 21.9873Z" fill="#8791AB"/>
<path d="M115.286 27.0381C115.286 27.5118 115.219 27.9315 115.087 28.2969C114.958 28.6624 114.768 28.9721 114.517 29.2259C114.269 29.4763 113.969 29.6658 113.617 29.7944C113.268 29.923 112.874 29.9873 112.434 29.9873C112.022 29.9873 111.644 29.923 111.299 29.7944C110.957 29.6658 110.659 29.4763 110.404 29.2259C110.153 28.9721 109.957 28.6624 109.818 28.2969C109.682 27.9315 109.614 27.5118 109.614 27.0381C109.614 26.4086 109.729 25.8756 109.959 25.4391C110.189 25.0025 110.517 24.6709 110.943 24.4442C111.368 24.2174 111.876 24.1041 112.465 24.1041C113.013 24.1041 113.498 24.2174 113.92 24.4442C114.346 24.6709 114.679 25.0025 114.919 25.4391C115.164 25.8756 115.286 26.4086 115.286 27.0381ZM111.241 27.0381C111.241 27.4103 111.283 27.7233 111.367 27.9772C111.45 28.231 111.581 28.4222 111.759 28.5508C111.937 28.6794 112.169 28.7436 112.455 28.7436C112.738 28.7436 112.966 28.6794 113.14 28.5508C113.318 28.4222 113.447 28.231 113.528 27.9772C113.611 27.7233 113.653 27.4103 113.653 27.0381C113.653 26.6624 113.611 26.3511 113.528 26.1041C113.447 25.8536 113.318 25.6658 113.14 25.5406C112.963 25.4154 112.731 25.3528 112.445 25.3528C112.022 25.3528 111.716 25.4932 111.524 25.7741C111.335 26.055 111.241 26.4763 111.241 27.0381Z" fill="#8791AB"/>
<path d="M119.927 24.1041C120.551 24.1041 121.053 24.2699 121.434 24.6015C121.814 24.9298 122.004 25.4577 122.004 26.1853V29.8858H120.408V26.5711C120.408 26.165 120.331 25.8587 120.178 25.6523C120.028 25.4458 119.791 25.3426 119.466 25.3426C118.978 25.3426 118.645 25.5034 118.467 25.8249C118.289 26.1464 118.2 26.61 118.2 27.2157V29.8858H116.604V24.2107H117.823L118.038 24.9365H118.127C118.252 24.7403 118.408 24.5812 118.592 24.4594C118.781 24.3376 118.988 24.2479 119.215 24.1904C119.445 24.1328 119.683 24.1041 119.927 24.1041Z" fill="#8791AB"/>
</svg>
