<svg width="200" height="200" viewBox="0 0 200 200" fill="none" xmlns="http://www.w3.org/2000/svg">
<path fill-rule="evenodd" clip-rule="evenodd" d="M148.749 15.3753V70.501L82.7324 4.47517C88.4384 3.49898 94.2164 3.00556 100.005 3.00015C117.034 2.97043 133.796 7.22611 148.749 15.3753ZM154.999 114.252V78.0018V19.0886C174.692 31.6655 189.237 50.8727 196.006 73.2393L154.999 114.252ZM45.0132 77.9982L71.2599 51.7479H13.4297C1.06215 72.5106 -2.95851 97.1964 2.18107 120.811L45.0132 77.9982ZM197.832 80.263C202.95 103.854 198.93 128.509 186.583 149.251H128.84L197.832 80.263ZM45.0131 122.999V86.8364L4.03076 127.824C10.8067 150.164 25.3414 169.347 45.0131 181.913V122.999ZM114.916 45.5037H77.5083H17.4534C31.3763 25.7747 51.9585 11.742 75.4086 5.99066L114.916 45.5037ZM122.503 155.5H86.3451L125.603 194.763C148.65 188.86 168.841 174.941 182.558 155.5H122.503ZM51.2646 129.249L77.5114 155.499L118.344 196.337C112.294 197.438 106.158 197.994 100.009 198C82.9799 198.03 66.2174 193.774 51.2646 185.625V129.249Z" fill="#1A9CB0"/>
</svg>
