<svg width="25" height="29" viewBox="0 0 25 29" fill="none" xmlns="http://www.w3.org/2000/svg">
<path d="M4.11907e-07 17.2339L5.88065e-07 21.3196C6.01324e-07 21.6271 0.161827 21.9113 0.424523 22.0651L12.0755 28.8847C12.3382 29.0384 12.6618 29.0384 12.9245 28.8847L24.5755 22.0651C24.8382 21.9113 25 21.6271 25 21.3196V15.8269L12.5 23.1695L5.09427 18.8348L5.09427 14.2521L4.11907e-07 17.2339Z" fill="#1DBDD6"/>
<path d="M12.5 5.83045L19.9057 10.1652V14.8169L25 11.835V7.68039C25 7.37286 24.8382 7.0887 24.5755 6.93493L12.9245 0.115323C12.6618 -0.038441 12.3382 -0.038441 12.0755 0.115323L0.424523 6.93493C0.161828 7.0887 -1.32592e-08 7.37286 0 7.68039L2.40931e-07 13.2684L12.5 5.83045Z" fill="#1DBDD6"/>
</svg>
