<svg width="119" height="30" viewBox="0 0 119 30" fill="none" xmlns="http://www.w3.org/2000/svg">
<path d="M1.36719 17.3314L1.36719 21.4403C1.36719 21.7495 1.53827 22.0353 1.81599 22.1899L14.1334 29.0481C14.4111 29.2028 14.7533 29.2028 15.031 29.0481L27.3484 22.1899C27.6261 22.0353 27.7972 21.7495 27.7972 21.4403V15.9164L14.5822 23.3007L6.75284 18.9414L6.75284 14.3328L1.36719 17.3314Z" fill="#009BB9"/>
<path d="M14.5822 5.86345L22.4115 10.2228V14.9007L27.7972 11.902V7.72385C27.7972 7.41459 27.6261 7.12881 27.3484 6.97418L15.031 0.115976C14.7533 -0.0386586 14.4111 -0.0386586 14.1334 0.115976L1.81599 6.97418C1.53827 7.12881 1.36719 7.41459 1.36719 7.72385L1.36719 13.3435L14.5822 5.86345Z" fill="#009BB9"/>
<path fill-rule="evenodd" clip-rule="evenodd" d="M111.617 3.92465V13.8714H113.694V3.92465H111.617ZM92.2519 6.65934V13.8714H94.3283V10.4664C94.3283 9.7783 94.5013 9.27337 94.8473 8.95165C95.2023 8.62098 95.6637 8.45565 96.2316 8.45565C96.3114 8.45565 96.3868 8.46012 96.4578 8.46906C96.5288 8.46906 96.6087 8.47352 96.6974 8.48246V6.5521C96.023 6.5521 95.4507 6.68615 94.9804 6.95426C94.6792 7.12027 94.4308 7.33762 94.2351 7.6063V6.65934H92.2519ZM87.5271 13.9786C86.764 13.9786 86.0852 13.8178 85.4907 13.496C84.9051 13.1743 84.4392 12.7364 84.0932 12.1823C83.756 11.6193 83.5874 10.9803 83.5874 10.2654C83.5874 9.54148 83.756 8.90249 84.0932 8.34841C84.4392 7.78539 84.9051 7.34748 85.4907 7.03469C86.0852 6.71296 86.764 6.5521 87.5271 6.5521C88.2813 6.5521 88.9557 6.71296 89.5502 7.03469C90.1447 7.34748 90.6105 7.78092 90.9477 8.335C91.2849 8.88909 91.4535 9.53254 91.4535 10.2654C91.4535 10.9803 91.2849 11.6193 90.9477 12.1823C90.6105 12.7364 90.1447 13.1743 89.5502 13.496C88.9557 13.8178 88.2813 13.9786 87.5271 13.9786ZM87.5271 12.2627C87.8732 12.2627 88.1837 12.1823 88.4588 12.0215C88.7339 11.8606 88.9513 11.6327 89.111 11.3378C89.2707 11.0339 89.3505 10.6765 89.3505 10.2654C89.3505 9.84533 89.2707 9.48786 89.111 9.19294C88.9513 8.89803 88.7339 8.67014 88.4588 8.50927C88.1837 8.34841 87.8732 8.26798 87.5271 8.26798C87.1811 8.26798 86.8705 8.34841 86.5954 8.50927C86.3203 8.67014 86.0985 8.89803 85.9299 9.19294C85.7702 9.48786 85.6903 9.84533 85.6903 10.2654C85.6903 10.6765 85.7702 11.0339 85.9299 11.3378C86.0985 11.6327 86.3203 11.8606 86.5954 12.0215C86.8705 12.1823 87.1811 12.2627 87.5271 12.2627ZM78.0373 13.5765C78.4898 13.8446 79.0177 13.9786 79.6211 13.9786C80.2955 13.9786 80.8989 13.8267 81.4313 13.5228C81.9725 13.219 82.3984 12.79 82.709 12.2359C83.0284 11.6819 83.1881 11.025 83.1881 10.2654C83.1881 9.51467 83.0284 8.86228 82.709 8.30819C82.3984 7.75411 81.9725 7.32514 81.4313 7.02129C80.8989 6.7085 80.2955 6.5521 79.6211 6.5521C78.9911 6.5521 78.4499 6.68615 77.9973 6.95426C77.7594 7.09524 77.5508 7.27453 77.3718 7.49212V6.65934H75.3886V16.472H77.4649V13.1078C77.6342 13.2945 77.825 13.4507 78.0373 13.5765ZM80.1801 12.0215C79.9139 12.1823 79.6078 12.2627 79.2618 12.2627C78.9157 12.2627 78.6051 12.1823 78.3301 12.0215C78.055 11.8606 77.8376 11.6327 77.6779 11.3378C77.5182 11.0339 77.4383 10.6765 77.4383 10.2654C77.4383 9.84533 77.5182 9.48786 77.6779 9.19294C77.8376 8.89803 78.055 8.67014 78.3301 8.50927C78.6051 8.34841 78.9157 8.26798 79.2618 8.26798C79.6078 8.26798 79.9139 8.34841 80.1801 8.50927C80.4552 8.67014 80.6726 8.89803 80.8323 9.19294C81.0009 9.48786 81.0852 9.84533 81.0852 10.2654C81.0852 10.6765 81.0009 11.0339 80.8323 11.3378C80.6726 11.6327 80.4552 11.8606 80.1801 12.0215ZM105.948 13.9786C106.551 13.9786 107.079 13.8446 107.532 13.5765C107.744 13.4507 107.935 13.2945 108.104 13.1078V13.8781H110.18V6.65934H108.197V7.49212C108.018 7.27453 107.81 7.09524 107.572 6.95426C107.119 6.68615 106.578 6.5521 105.948 6.5521C105.273 6.5521 104.67 6.7085 104.138 7.02129C103.596 7.32514 103.171 7.75411 102.86 8.30819C102.541 8.86228 102.381 9.51467 102.381 10.2654C102.381 11.025 102.541 11.6819 102.86 12.2359C103.171 12.79 103.596 13.219 104.138 13.5228C104.67 13.8267 105.273 13.9786 105.948 13.9786ZM106.307 12.2627C105.961 12.2627 105.655 12.1823 105.389 12.0215C105.114 11.8606 104.896 11.6327 104.737 11.3378C104.568 11.0339 104.484 10.6765 104.484 10.2654C104.484 9.84533 104.568 9.48786 104.737 9.19294C104.896 8.89803 105.114 8.67014 105.389 8.50927C105.655 8.34841 105.961 8.26798 106.307 8.26798C106.653 8.26798 106.964 8.34841 107.239 8.50927C107.514 8.67014 107.731 8.89803 107.891 9.19294C108.051 9.48786 108.131 9.84533 108.131 10.2654C108.131 10.6765 108.051 11.0339 107.891 11.3378C107.731 11.6327 107.514 11.8606 107.239 12.0215C106.964 12.1823 106.653 12.2627 106.307 12.2627ZM50.3657 13.5765C50.8183 13.8446 51.3462 13.9786 51.9496 13.9786C52.624 13.9786 53.2273 13.8267 53.7597 13.5228C54.301 13.219 54.7269 12.79 55.0375 12.2359C55.3569 11.6819 55.5166 11.025 55.5166 10.2654C55.5166 9.51467 55.3569 8.86228 55.0375 8.30819C54.7269 7.75411 54.301 7.32514 53.7597 7.02129C53.2273 6.7085 52.624 6.5521 51.9496 6.5521C51.3196 6.5521 50.7783 6.68615 50.3258 6.95426C50.0878 7.09524 49.8793 7.27453 49.7002 7.49212V6.65934H47.7171V16.472H49.7934V13.1078C49.9627 13.2945 50.1535 13.4507 50.3657 13.5765ZM52.5086 12.0215C52.2424 12.1823 51.9363 12.2627 51.5902 12.2627C51.2442 12.2627 50.9336 12.1823 50.6585 12.0215C50.3835 11.8606 50.1661 11.6327 50.0064 11.3378C49.8467 11.0339 49.7668 10.6765 49.7668 10.2654C49.7668 9.84533 49.8467 9.48786 50.0064 9.19294C50.1661 8.89803 50.3835 8.67014 50.6585 8.50927C50.9336 8.34841 51.2442 8.26798 51.5902 8.26798C51.9363 8.26798 52.2424 8.34841 52.5086 8.50927C52.7837 8.67014 53.0011 8.89803 53.1608 9.19294C53.3294 9.48786 53.4137 9.84533 53.4137 10.2654C53.4137 10.6765 53.3294 11.0339 53.1608 11.3378C53.0011 11.6327 52.7837 11.8606 52.5086 12.0215ZM72.5798 13.9786C71.7368 13.9786 71.0802 13.7641 70.61 13.3351C70.1397 12.8972 69.9045 12.2493 69.9045 11.3914V8.48244V6.8738V5.06409H71.9809V6.8738H74.2968V8.48244H71.9809V11.3646C71.9809 11.6684 72.0607 11.9053 72.2204 12.0751C72.3802 12.2359 72.5975 12.3163 72.8726 12.3163H74.2968V13.9786H72.5798ZM98.268 13.3351C98.7383 13.7641 99.3949 13.9786 100.238 13.9786H101.955V12.3163H100.531C100.256 12.3163 100.038 12.2359 99.8785 12.0751C99.7188 11.9053 99.6389 11.6684 99.6389 11.3646V8.48244H101.955V6.8738H99.6389V5.06409H97.5626V6.8738V8.48244V11.3914C97.5626 12.2493 97.7977 12.8972 98.268 13.3351ZM64.5939 13.8714V6.65934H66.5771V7.60631C66.7727 7.33762 67.0212 7.12027 67.3224 6.95426C67.7927 6.68615 68.365 6.5521 69.0394 6.5521V8.48246C68.9507 8.47352 68.8708 8.46906 68.7998 8.46906C68.7288 8.46012 68.6534 8.45565 68.5735 8.45565C68.0057 8.45565 67.5442 8.62098 67.1893 8.95165C66.8433 9.27337 66.6702 9.7783 66.6702 10.4664V13.8714H64.5939ZM57.8211 13.496C58.4156 13.8178 59.0944 13.9786 59.8575 13.9786C60.6117 13.9786 61.2861 13.8178 61.8806 13.496C62.4751 13.1743 62.941 12.7364 63.2781 12.1823C63.6153 11.6193 63.7839 10.9803 63.7839 10.2654C63.7839 9.53254 63.6153 8.88909 63.2781 8.335C62.941 7.78092 62.4751 7.34748 61.8806 7.03469C61.2861 6.71296 60.6117 6.5521 59.8575 6.5521C59.0944 6.5521 58.4156 6.71296 57.8211 7.03469C57.2355 7.34748 56.7696 7.78539 56.4236 8.34841C56.0864 8.90249 55.9178 9.54148 55.9178 10.2654C55.9178 10.9803 56.0864 11.6193 56.4236 12.1823C56.7696 12.7364 57.2355 13.1743 57.8211 13.496ZM60.7892 12.0215C60.5141 12.1823 60.2036 12.2627 59.8575 12.2627C59.5115 12.2627 59.2009 12.1823 58.9258 12.0215C58.6508 11.8606 58.4289 11.6327 58.2603 11.3378C58.1006 11.0339 58.0208 10.6765 58.0208 10.2654C58.0208 9.84533 58.1006 9.48786 58.2603 9.19294C58.4289 8.89803 58.6508 8.67014 58.9258 8.50927C59.2009 8.34841 59.5115 8.26798 59.8575 8.26798C60.2036 8.26798 60.5141 8.34841 60.7892 8.50927C61.0643 8.67014 61.2817 8.89803 61.4414 9.19294C61.6011 9.48786 61.681 9.84533 61.681 10.2654C61.681 10.6765 61.6011 11.0339 61.4414 11.3378C61.2817 11.6327 61.0643 11.8606 60.7892 12.0215ZM43.3365 13.9786C42.5202 13.9786 41.8014 13.8178 41.1803 13.496C40.5681 13.1743 40.0934 12.7364 39.7562 12.1823C39.419 11.6193 39.2504 10.9803 39.2504 10.2654C39.2504 9.54148 39.4146 8.90249 39.7429 8.34841C40.08 7.78539 40.537 7.34748 41.1138 7.03469C41.6905 6.71296 42.3427 6.5521 43.0703 6.5521C43.7713 6.5521 44.4013 6.70403 44.9603 7.00788C45.5282 7.3028 45.9763 7.73177 46.3046 8.29479C46.6329 8.84887 46.7971 9.51467 46.7971 10.2922C46.7971 10.3726 46.7926 10.4664 46.7838 10.5737C46.7749 10.672 46.766 10.7658 46.7571 10.8552H41.3392C41.3811 11.0472 41.4479 11.2259 41.5397 11.3914C41.7172 11.6863 41.9612 11.9142 42.2717 12.0751C42.5912 12.227 42.9638 12.303 43.3898 12.303C43.7713 12.303 44.104 12.2449 44.388 12.1287C44.6808 12.0125 44.947 11.8382 45.1866 11.6059L46.2913 12.8124C45.963 13.1877 45.5504 13.4782 45.0535 13.6837C44.5566 13.8803 43.9843 13.9786 43.3365 13.9786ZM41.5131 9.03208C41.4157 9.21083 41.3498 9.41191 41.3153 9.63531H44.8416C44.8079 9.40811 44.741 9.20256 44.6409 9.01867C44.49 8.74163 44.2815 8.52715 44.0153 8.37522C43.7491 8.21436 43.4386 8.13392 43.0836 8.13392C42.7287 8.13392 42.4137 8.21436 42.1386 8.37522C41.8724 8.52715 41.6639 8.7461 41.5131 9.03208ZM36.4304 7.60631C36.6261 7.33762 36.8745 7.12027 37.1758 6.95426C37.6461 6.68615 38.2184 6.5521 38.8927 6.5521V8.48246C38.804 8.47352 38.7242 8.46906 38.6532 8.46906C38.5822 8.46012 38.5068 8.45565 38.4269 8.45565C37.859 8.45565 37.3976 8.62098 37.0427 8.95165C36.6966 9.27337 36.5236 9.7783 36.5236 10.4664V13.8714H34.4473V6.65934H36.4304V7.60631Z" fill="white"/>
<path d="M36.5402 23.2948C36.1902 23.2948 35.8748 23.2165 35.5939 23.0599C35.313 22.8987 35.0896 22.6754 34.9239 22.3899C34.7627 22.1044 34.6821 21.7682 34.6821 21.3814C34.6821 20.99 34.7627 20.6516 34.9239 20.3661C35.0896 20.0806 35.313 19.8595 35.5939 19.703C35.8748 19.5464 36.1902 19.4681 36.5402 19.4681C36.8533 19.4681 37.1273 19.5372 37.3621 19.6753C37.597 19.8135 37.7789 20.023 37.9078 20.3039C38.0368 20.5848 38.1012 20.944 38.1012 21.3814C38.1012 21.8143 38.0391 22.1735 37.9147 22.459C37.7904 22.7399 37.6108 22.9494 37.376 23.0875C37.1457 23.2257 36.8671 23.2948 36.5402 23.2948ZM36.7267 22.4106C36.9017 22.4106 37.0605 22.3692 37.2033 22.2863C37.346 22.2034 37.4588 22.086 37.5417 21.934C37.6292 21.7775 37.673 21.5933 37.673 21.3814C37.673 21.165 37.6292 20.9808 37.5417 20.8289C37.4588 20.6769 37.346 20.5595 37.2033 20.4766C37.0605 20.3937 36.9017 20.3523 36.7267 20.3523C36.5471 20.3523 36.3859 20.3937 36.2432 20.4766C36.1004 20.5595 35.9853 20.6769 35.8978 20.8289C35.8149 20.9808 35.7735 21.165 35.7735 21.3814C35.7735 21.5933 35.8149 21.7775 35.8978 21.934C35.9853 22.086 36.1004 22.2034 36.2432 22.2863C36.3859 22.3692 36.5471 22.4106 36.7267 22.4106ZM37.7006 23.2395V22.4797L37.7213 21.3745L37.6522 20.2763V18.1143H38.7298V23.2395H37.7006ZM41.4953 23.2948C41.0993 23.2948 40.7471 23.2119 40.4385 23.0461C40.1346 22.8803 39.8929 22.6547 39.7133 22.3692C39.5383 22.0791 39.4508 21.7498 39.4508 21.3814C39.4508 21.0084 39.5383 20.6792 39.7133 20.3937C39.8929 20.1036 40.1346 19.878 40.4385 19.7168C40.7471 19.551 41.0993 19.4681 41.4953 19.4681C41.8868 19.4681 42.2367 19.551 42.5453 19.7168C42.8538 19.878 43.0955 20.1013 43.2705 20.3868C43.4455 20.6723 43.533 21.0038 43.533 21.3814C43.533 21.7498 43.4455 22.0791 43.2705 22.3692C43.0955 22.6547 42.8538 22.8803 42.5453 23.0461C42.2367 23.2119 41.8868 23.2948 41.4953 23.2948ZM41.4953 22.4106C41.6749 22.4106 41.8361 22.3692 41.9789 22.2863C42.1216 22.2034 42.2344 22.086 42.3173 21.934C42.4002 21.7775 42.4416 21.5933 42.4416 21.3814C42.4416 21.165 42.4002 20.9808 42.3173 20.8289C42.2344 20.6769 42.1216 20.5595 41.9789 20.4766C41.8361 20.3937 41.6749 20.3523 41.4953 20.3523C41.3158 20.3523 41.1546 20.3937 41.0118 20.4766C40.8691 20.5595 40.754 20.6769 40.6665 20.8289C40.5836 20.9808 40.5421 21.165 40.5421 21.3814C40.5421 21.5933 40.5836 21.7775 40.6665 21.934C40.754 22.086 40.8691 22.2034 41.0118 22.2863C41.1546 22.3692 41.3158 22.4106 41.4953 22.4106ZM46.0491 23.2948C45.6485 23.2948 45.2916 23.2142 44.9785 23.053C44.6654 22.8872 44.419 22.6593 44.2394 22.3692C44.0644 22.0791 43.977 21.7498 43.977 21.3814C43.977 21.0084 44.0644 20.6792 44.2394 20.3937C44.419 20.1036 44.6654 19.878 44.9785 19.7168C45.2916 19.551 45.6485 19.4681 46.0491 19.4681C46.4406 19.4681 46.7813 19.551 47.0714 19.7168C47.3615 19.878 47.5757 20.1105 47.7138 20.4144L46.878 20.8634C46.7813 20.6884 46.6593 20.5595 46.5119 20.4766C46.3692 20.3937 46.2126 20.3523 46.0422 20.3523C45.858 20.3523 45.6923 20.3937 45.5449 20.4766C45.3976 20.5595 45.2801 20.6769 45.1926 20.8289C45.1097 20.9808 45.0683 21.165 45.0683 21.3814C45.0683 21.5979 45.1097 21.7821 45.1926 21.934C45.2801 22.086 45.3976 22.2034 45.5449 22.2863C45.6923 22.3692 45.858 22.4106 46.0422 22.4106C46.2126 22.4106 46.3692 22.3715 46.5119 22.2932C46.6593 22.2103 46.7813 22.0791 46.878 21.8995L47.7138 22.3554C47.5757 22.6547 47.3615 22.8872 47.0714 23.053C46.7813 23.2142 46.4406 23.2948 46.0491 23.2948ZM49.9022 23.2948C49.5936 23.2948 49.3174 23.2349 49.0733 23.1152C48.8338 22.9954 48.6473 22.8136 48.5138 22.5695C48.3803 22.3208 48.3135 22.0054 48.3135 21.6232V19.5234H49.391V21.4643C49.391 21.7729 49.4555 22.0008 49.5844 22.1481C49.718 22.2909 49.9045 22.3623 50.1439 22.3623C50.3097 22.3623 50.4571 22.3277 50.586 22.2587C50.7149 22.185 50.8162 22.0745 50.8899 21.9271C50.9636 21.7752 51.0004 21.5864 51.0004 21.3607V19.5234H52.078V23.2395H51.0557V22.2172L51.2422 22.5142C51.1179 22.7721 50.9337 22.9678 50.6896 23.1014C50.4501 23.2303 50.1877 23.2948 49.9022 23.2948ZM57.8354 19.4681C58.1301 19.4681 58.3902 19.528 58.6159 19.6477C58.8461 19.7628 59.0257 19.9424 59.1546 20.1865C59.2882 20.4259 59.355 20.7345 59.355 21.1121V23.2395H58.2774V21.2778C58.2774 20.9785 58.2153 20.7575 58.0909 20.6147C57.9666 20.472 57.7916 20.4006 57.566 20.4006C57.4094 20.4006 57.269 20.4374 57.1446 20.5111C57.0203 20.5802 56.9236 20.6861 56.8545 20.8289C56.7854 20.9716 56.7509 21.1535 56.7509 21.3745V23.2395H55.6734V21.2778C55.6734 20.9785 55.6112 20.7575 55.4869 20.6147C55.3671 20.472 55.1945 20.4006 54.9688 20.4006C54.8123 20.4006 54.6718 20.4374 54.5475 20.5111C54.4232 20.5802 54.3264 20.6861 54.2574 20.8289C54.1883 20.9716 54.1538 21.1535 54.1538 21.3745V23.2395H53.0762V19.5234H54.1054V20.5388L53.912 20.2417C54.0409 19.9885 54.2228 19.7974 54.4577 19.6684C54.6971 19.5349 54.9688 19.4681 55.2727 19.4681C55.6135 19.4681 55.9105 19.5556 56.1638 19.7306C56.4217 19.901 56.592 20.1635 56.6749 20.518L56.295 20.4144C56.4194 20.1243 56.6174 19.8941 56.8891 19.7237C57.1653 19.5533 57.4808 19.4681 57.8354 19.4681ZM62.192 23.2948C61.7684 23.2948 61.3954 23.2119 61.073 23.0461C60.7553 22.8803 60.5089 22.6547 60.334 22.3692C60.159 22.0791 60.0715 21.7498 60.0715 21.3814C60.0715 21.0084 60.1567 20.6792 60.3271 20.3937C60.502 20.1036 60.7392 19.878 61.0385 19.7168C61.3378 19.551 61.6763 19.4681 62.0539 19.4681C62.4177 19.4681 62.7446 19.5464 63.0347 19.703C63.3294 19.8549 63.562 20.076 63.7323 20.3661C63.9027 20.6516 63.9879 20.9946 63.9879 21.3953C63.9879 21.4367 63.9856 21.485 63.981 21.5403C63.9764 21.591 63.9718 21.6393 63.9672 21.6854H60.9487V21.0568H63.4008L62.9864 21.2433C62.9864 21.0499 62.9472 20.8818 62.8689 20.7391C62.7907 20.5963 62.6824 20.4858 62.5443 20.4075C62.4061 20.3246 62.245 20.2832 62.0608 20.2832C61.8766 20.2832 61.7131 20.3246 61.5704 20.4075C61.4322 20.4858 61.324 20.5986 61.2457 20.746C61.1674 20.8887 61.1283 21.0591 61.1283 21.2571V21.4229C61.1283 21.6255 61.172 21.8051 61.2595 21.9617C61.3516 22.1136 61.4783 22.231 61.6394 22.3139C61.8052 22.3922 61.9986 22.4313 62.2196 22.4313C62.4177 22.4313 62.5903 22.4014 62.7377 22.3416C62.8897 22.2817 63.0278 22.1919 63.1521 22.0722L63.7254 22.6938C63.5551 22.8872 63.3409 23.0369 63.0831 23.1428C62.8252 23.2441 62.5282 23.2948 62.192 23.2948ZM66.964 19.4681C67.2587 19.4681 67.5212 19.528 67.7514 19.6477C67.9863 19.7628 68.1705 19.9424 68.304 20.1865C68.4375 20.4259 68.5043 20.7345 68.5043 21.1121V23.2395H67.4268V21.2778C67.4268 20.9785 67.36 20.7575 67.2265 20.6147C67.0975 20.472 66.9133 20.4006 66.6739 20.4006C66.5035 20.4006 66.3492 20.4374 66.2111 20.5111C66.0776 20.5802 65.9716 20.6884 65.8934 20.8358C65.8197 20.9831 65.7828 21.1719 65.7828 21.4022V23.2395H64.7053V19.5234H65.7345V20.5526L65.5411 20.2417C65.6746 19.9931 65.8657 19.802 66.1144 19.6684C66.3631 19.5349 66.6463 19.4681 66.964 19.4681ZM71.0007 23.2948C70.5632 23.2948 70.2224 23.1842 69.9784 22.9632C69.7343 22.7376 69.6123 22.4037 69.6123 21.9617V18.7014H70.6898V21.9478C70.6898 22.1044 70.7313 22.2264 70.8142 22.3139C70.897 22.3968 71.0099 22.4383 71.1526 22.4383C71.323 22.4383 71.468 22.3922 71.5878 22.3001L71.8779 23.0599C71.7674 23.1382 71.6338 23.1981 71.4773 23.2395C71.3253 23.2763 71.1664 23.2948 71.0007 23.2948ZM69.039 20.4351V19.6063H71.6154V20.4351H69.039ZM74.7622 23.2395V22.5142L74.6931 22.3554V21.0568C74.6931 20.8266 74.6217 20.647 74.479 20.518C74.3408 20.3891 74.1267 20.3246 73.8366 20.3246C73.6386 20.3246 73.4429 20.3569 73.2495 20.4213C73.0607 20.4812 72.8995 20.5641 72.766 20.67L72.3791 19.9171C72.5818 19.7743 72.8258 19.6638 73.1113 19.5855C73.3968 19.5073 73.6869 19.4681 73.9816 19.4681C74.548 19.4681 74.9878 19.6017 75.3009 19.8687C75.6141 20.1358 75.7706 20.5526 75.7706 21.119V23.2395H74.7622ZM73.6294 23.2948C73.3393 23.2948 73.0906 23.2464 72.8834 23.1497C72.6762 23.0484 72.5173 22.9126 72.4068 22.7422C72.2963 22.5718 72.241 22.3807 72.241 22.1689C72.241 21.9478 72.294 21.7544 72.3999 21.5887C72.5104 21.4229 72.6831 21.2939 72.9179 21.2019C73.1528 21.1051 73.459 21.0568 73.8366 21.0568H74.8243V21.6854H73.954C73.7007 21.6854 73.5258 21.7268 73.4291 21.8097C73.337 21.8926 73.2909 21.9962 73.2909 22.1205C73.2909 22.2587 73.3439 22.3692 73.4498 22.4521C73.5603 22.5304 73.7099 22.5695 73.8987 22.5695C74.0783 22.5695 74.2395 22.5281 74.3823 22.4452C74.525 22.3577 74.6286 22.231 74.6931 22.0653L74.8589 22.5626C74.7806 22.802 74.6378 22.9839 74.4306 23.1083C74.2234 23.2326 73.9563 23.2948 73.6294 23.2948ZM78.2654 23.2948C77.828 23.2948 77.4872 23.1842 77.2432 22.9632C76.9991 22.7376 76.8771 22.4037 76.8771 21.9617V18.7014H77.9546V21.9478C77.9546 22.1044 77.9961 22.2264 78.079 22.3139C78.1618 22.3968 78.2747 22.4383 78.4174 22.4383C78.5878 22.4383 78.7328 22.3922 78.8526 22.3001L79.1427 23.0599C79.0322 23.1382 78.8986 23.1981 78.7421 23.2395C78.5901 23.2763 78.4312 23.2948 78.2654 23.2948ZM76.3038 20.4351V19.6063H78.8802V20.4351H76.3038ZM79.7476 23.2395V19.5234H80.8251V23.2395H79.7476ZM80.2863 19.0053C80.0883 19.0053 79.9271 18.9478 79.8028 18.8326C79.6785 18.7175 79.6163 18.5748 79.6163 18.4044C79.6163 18.234 79.6785 18.0913 79.8028 17.9761C79.9271 17.861 80.0883 17.8035 80.2863 17.8035C80.4843 17.8035 80.6455 17.8587 80.7698 17.9692C80.8942 18.0752 80.9563 18.2133 80.9563 18.3837C80.9563 18.5633 80.8942 18.7129 80.7698 18.8326C80.6501 18.9478 80.4889 19.0053 80.2863 19.0053ZM83.5934 23.2948C83.1974 23.2948 82.8451 23.2119 82.5366 23.0461C82.2327 22.8803 81.9909 22.6547 81.8113 22.3692C81.6363 22.0791 81.5488 21.7498 81.5488 21.3814C81.5488 21.0084 81.6363 20.6792 81.8113 20.3937C81.9909 20.1036 82.2327 19.878 82.5366 19.7168C82.8451 19.551 83.1974 19.4681 83.5934 19.4681C83.9848 19.4681 84.3348 19.551 84.6433 19.7168C84.9518 19.878 85.1936 20.1013 85.3686 20.3868C85.5436 20.6723 85.6311 21.0038 85.6311 21.3814C85.6311 21.7498 85.5436 22.0791 85.3686 22.3692C85.1936 22.6547 84.9518 22.8803 84.6433 23.0461C84.3348 23.2119 83.9848 23.2948 83.5934 23.2948ZM83.5934 22.4106C83.773 22.4106 83.9342 22.3692 84.0769 22.2863C84.2197 22.2034 84.3325 22.086 84.4154 21.934C84.4983 21.7775 84.5397 21.5933 84.5397 21.3814C84.5397 21.165 84.4983 20.9808 84.4154 20.8289C84.3325 20.6769 84.2197 20.5595 84.0769 20.4766C83.9342 20.3937 83.773 20.3523 83.5934 20.3523C83.4138 20.3523 83.2526 20.3937 83.1099 20.4766C82.9671 20.5595 82.852 20.6769 82.7645 20.8289C82.6816 20.9808 82.6402 21.165 82.6402 21.3814C82.6402 21.5933 82.6816 21.7775 82.7645 21.934C82.852 22.086 82.9671 22.2034 83.1099 22.2863C83.2526 22.3692 83.4138 22.4106 83.5934 22.4106ZM88.61 19.4681C88.9047 19.4681 89.1672 19.528 89.3974 19.6477C89.6323 19.7628 89.8165 19.9424 89.95 20.1865C90.0835 20.4259 90.1503 20.7345 90.1503 21.1121V23.2395H89.0728V21.2778C89.0728 20.9785 89.006 20.7575 88.8725 20.6147C88.7435 20.472 88.5593 20.4006 88.3199 20.4006C88.1495 20.4006 87.9952 20.4374 87.8571 20.5111C87.7235 20.5802 87.6176 20.6884 87.5394 20.8358C87.4657 20.9831 87.4288 21.1719 87.4288 21.4022V23.2395H86.3513V19.5234H87.3805V20.5526L87.1871 20.2417C87.3206 19.9931 87.5117 19.802 87.7604 19.6684C88.009 19.5349 88.2922 19.4681 88.61 19.4681Z" fill="white"/>
</svg>
